<mxfile host="app.diagrams.net" modified="2022-04-03T17:05:25.908Z" agent="5.0 (Windows NT 6.1; Win64; x64) AppleWebKit/537.36 (KHTML, like Gecko) Chrome/100.0.4896.60 Safari/537.36" etag="8QNCFS3ltmGKKrCJxwo-" version="17.4.0" type="github">
  <diagram id="C5RBs43oDa-KdzZeNtuy" name="Page-1">
    <mxGraphModel dx="1860" dy="889" grid="1" gridSize="20" guides="1" tooltips="1" connect="1" arrows="1" fold="1" page="1" pageScale="1" pageWidth="827" pageHeight="1169" math="0" shadow="0">
      <root>
        <mxCell id="WIyWlLk6GJQsqaUBKTNV-0" />
        <mxCell id="WIyWlLk6GJQsqaUBKTNV-1" parent="WIyWlLk6GJQsqaUBKTNV-0" />
        <mxCell id="zUhGvFNywTjKuXfnofkF-5" value="" style="edgeStyle=orthogonalEdgeStyle;rounded=0;orthogonalLoop=1;jettySize=auto;html=1;entryX=0.5;entryY=0;entryDx=0;entryDy=0;" parent="WIyWlLk6GJQsqaUBKTNV-1" source="WIyWlLk6GJQsqaUBKTNV-3" target="WG-GIoE7qXhuWjVk6lCx-2" edge="1">
          <mxGeometry relative="1" as="geometry" />
        </mxCell>
        <mxCell id="WIyWlLk6GJQsqaUBKTNV-3" value="&lt;font style=&quot;font-size: 12px&quot;&gt;начало&lt;/font&gt;" style="rounded=1;whiteSpace=wrap;html=1;fontSize=12;glass=0;strokeWidth=1;shadow=0;" parent="WIyWlLk6GJQsqaUBKTNV-1" vertex="1">
          <mxGeometry x="300.01" y="23.5" width="80" height="20" as="geometry" />
        </mxCell>
        <mxCell id="zUhGvFNywTjKuXfnofkF-8" value="" style="edgeStyle=orthogonalEdgeStyle;rounded=0;orthogonalLoop=1;jettySize=auto;html=1;exitX=0.519;exitY=0.706;exitDx=0;exitDy=0;exitPerimeter=0;entryX=0.5;entryY=0;entryDx=0;entryDy=0;" parent="WIyWlLk6GJQsqaUBKTNV-1" source="WG-GIoE7qXhuWjVk6lCx-2" target="zUhGvFNywTjKuXfnofkF-7" edge="1">
          <mxGeometry relative="1" as="geometry">
            <mxPoint x="340" y="123.5" as="targetPoint" />
          </mxGeometry>
        </mxCell>
        <mxCell id="WG-GIoE7qXhuWjVk6lCx-2" value="&quot;Choose the first if you.....&quot;" style="shape=document;whiteSpace=wrap;html=1;boundedLbl=1;fontSize=12;size=0.5;" parent="WIyWlLk6GJQsqaUBKTNV-1" vertex="1">
          <mxGeometry x="261.25" y="63.5" width="157.5" height="56.5" as="geometry" />
        </mxCell>
        <mxCell id="WG-GIoE7qXhuWjVk6lCx-10" value="" style="edgeStyle=orthogonalEdgeStyle;rounded=0;orthogonalLoop=1;jettySize=auto;html=1;fontSize=12;exitX=0.5;exitY=1;exitDx=0;exitDy=0;entryX=0.5;entryY=0;entryDx=0;entryDy=0;" parent="WIyWlLk6GJQsqaUBKTNV-1" source="zUhGvFNywTjKuXfnofkF-6" target="zUhGvFNywTjKuXfnofkF-34" edge="1">
          <mxGeometry relative="1" as="geometry">
            <mxPoint x="170" y="351" as="sourcePoint" />
            <mxPoint x="170" y="380" as="targetPoint" />
            <Array as="points" />
          </mxGeometry>
        </mxCell>
        <mxCell id="WG-GIoE7qXhuWjVk6lCx-46" value="" style="edgeStyle=orthogonalEdgeStyle;rounded=0;orthogonalLoop=1;jettySize=auto;html=1;fontSize=12;" parent="WIyWlLk6GJQsqaUBKTNV-1" source="WG-GIoE7qXhuWjVk6lCx-40" target="WG-GIoE7qXhuWjVk6lCx-45" edge="1">
          <mxGeometry relative="1" as="geometry" />
        </mxCell>
        <mxCell id="WG-GIoE7qXhuWjVk6lCx-40" value="&lt;font style=&quot;font-size: 12px&quot;&gt;начало&lt;/font&gt;" style="rounded=1;whiteSpace=wrap;html=1;fontSize=12;glass=0;strokeWidth=1;shadow=0;" parent="WIyWlLk6GJQsqaUBKTNV-1" vertex="1">
          <mxGeometry x="880.0400000000001" y="23.5" width="80" height="20" as="geometry" />
        </mxCell>
        <mxCell id="WG-GIoE7qXhuWjVk6lCx-48" value="" style="edgeStyle=orthogonalEdgeStyle;rounded=0;orthogonalLoop=1;jettySize=auto;html=1;fontSize=12;" parent="WIyWlLk6GJQsqaUBKTNV-1" source="WG-GIoE7qXhuWjVk6lCx-45" target="WG-GIoE7qXhuWjVk6lCx-47" edge="1">
          <mxGeometry relative="1" as="geometry" />
        </mxCell>
        <mxCell id="WG-GIoE7qXhuWjVk6lCx-45" value="i = 0" style="whiteSpace=wrap;html=1;" parent="WIyWlLk6GJQsqaUBKTNV-1" vertex="1">
          <mxGeometry x="875.0400000000001" y="63.5" width="90" height="20" as="geometry" />
        </mxCell>
        <mxCell id="WG-GIoE7qXhuWjVk6lCx-50" value="" style="edgeStyle=orthogonalEdgeStyle;rounded=0;orthogonalLoop=1;jettySize=auto;html=1;fontSize=12;entryX=0.5;entryY=0;entryDx=0;entryDy=0;" parent="WIyWlLk6GJQsqaUBKTNV-1" source="WG-GIoE7qXhuWjVk6lCx-47" target="WG-GIoE7qXhuWjVk6lCx-51" edge="1">
          <mxGeometry relative="1" as="geometry">
            <mxPoint x="920.0400000000001" y="243.5" as="targetPoint" />
          </mxGeometry>
        </mxCell>
        <mxCell id="WG-GIoE7qXhuWjVk6lCx-52" style="edgeStyle=orthogonalEdgeStyle;rounded=0;orthogonalLoop=1;jettySize=auto;html=1;fontSize=12;entryX=0.5;entryY=0;entryDx=0;entryDy=0;" parent="WIyWlLk6GJQsqaUBKTNV-1" source="WG-GIoE7qXhuWjVk6lCx-47" target="WG-GIoE7qXhuWjVk6lCx-53" edge="1">
          <mxGeometry relative="1" as="geometry">
            <mxPoint x="920.0400000000001" y="443.5" as="targetPoint" />
            <Array as="points">
              <mxPoint x="1060.04" y="143.5" />
              <mxPoint x="1060.04" y="503.5" />
              <mxPoint x="920.0400000000001" y="503.5" />
            </Array>
          </mxGeometry>
        </mxCell>
        <mxCell id="WG-GIoE7qXhuWjVk6lCx-47" value="i &amp;lt; numb.size ()" style="rhombus;whiteSpace=wrap;html=1;" parent="WIyWlLk6GJQsqaUBKTNV-1" vertex="1">
          <mxGeometry x="860.0400000000001" y="123.5" width="120" height="40" as="geometry" />
        </mxCell>
        <mxCell id="WG-GIoE7qXhuWjVk6lCx-55" value="" style="edgeStyle=orthogonalEdgeStyle;rounded=0;orthogonalLoop=1;jettySize=auto;html=1;fontSize=12;" parent="WIyWlLk6GJQsqaUBKTNV-1" source="WG-GIoE7qXhuWjVk6lCx-51" target="WG-GIoE7qXhuWjVk6lCx-54" edge="1">
          <mxGeometry relative="1" as="geometry" />
        </mxCell>
        <mxCell id="WG-GIoE7qXhuWjVk6lCx-51" value="j = 0" style="whiteSpace=wrap;html=1;" parent="WIyWlLk6GJQsqaUBKTNV-1" vertex="1">
          <mxGeometry x="875.0400000000001" y="193.5" width="90" height="20" as="geometry" />
        </mxCell>
        <mxCell id="WG-GIoE7qXhuWjVk6lCx-53" value="конец" style="rounded=1;whiteSpace=wrap;html=1;fontSize=12;" parent="WIyWlLk6GJQsqaUBKTNV-1" vertex="1">
          <mxGeometry x="890.0400000000001" y="523.5" width="60" height="20" as="geometry" />
        </mxCell>
        <mxCell id="WG-GIoE7qXhuWjVk6lCx-57" value="" style="edgeStyle=orthogonalEdgeStyle;rounded=0;orthogonalLoop=1;jettySize=auto;html=1;fontSize=12;" parent="WIyWlLk6GJQsqaUBKTNV-1" source="WG-GIoE7qXhuWjVk6lCx-54" target="WG-GIoE7qXhuWjVk6lCx-56" edge="1">
          <mxGeometry relative="1" as="geometry" />
        </mxCell>
        <mxCell id="WG-GIoE7qXhuWjVk6lCx-72" style="edgeStyle=orthogonalEdgeStyle;rounded=0;orthogonalLoop=1;jettySize=auto;html=1;exitX=1;exitY=0.5;exitDx=0;exitDy=0;fontSize=12;entryX=0.5;entryY=0;entryDx=0;entryDy=0;startArrow=none;" parent="WIyWlLk6GJQsqaUBKTNV-1" source="WG-GIoE7qXhuWjVk6lCx-73" target="WG-GIoE7qXhuWjVk6lCx-47" edge="1">
          <mxGeometry relative="1" as="geometry">
            <mxPoint x="820.0400000000001" y="183.5" as="targetPoint" />
            <Array as="points">
              <mxPoint x="800.0400000000001" y="103.5" />
              <mxPoint x="920.0400000000001" y="103.5" />
            </Array>
          </mxGeometry>
        </mxCell>
        <mxCell id="WG-GIoE7qXhuWjVk6lCx-76" style="edgeStyle=orthogonalEdgeStyle;rounded=0;orthogonalLoop=1;jettySize=auto;html=1;exitX=1;exitY=0.5;exitDx=0;exitDy=0;fontSize=12;" parent="WIyWlLk6GJQsqaUBKTNV-1" source="WG-GIoE7qXhuWjVk6lCx-54" target="WG-GIoE7qXhuWjVk6lCx-73" edge="1">
          <mxGeometry relative="1" as="geometry">
            <mxPoint x="1040.04" y="483.5" as="targetPoint" />
            <Array as="points">
              <mxPoint x="1040.04" y="260.5" />
              <mxPoint x="1040.04" y="482.5" />
            </Array>
          </mxGeometry>
        </mxCell>
        <mxCell id="WG-GIoE7qXhuWjVk6lCx-54" value="j &amp;lt; numb.size() - i - 1" style="rhombus;whiteSpace=wrap;html=1;" parent="WIyWlLk6GJQsqaUBKTNV-1" vertex="1">
          <mxGeometry x="850.0400000000001" y="237.5" width="140" height="46" as="geometry" />
        </mxCell>
        <mxCell id="WG-GIoE7qXhuWjVk6lCx-59" value="" style="edgeStyle=orthogonalEdgeStyle;rounded=0;orthogonalLoop=1;jettySize=auto;html=1;fontSize=12;" parent="WIyWlLk6GJQsqaUBKTNV-1" source="WG-GIoE7qXhuWjVk6lCx-56" edge="1">
          <mxGeometry relative="1" as="geometry">
            <mxPoint x="920.0400000000001" y="363.5" as="targetPoint" />
          </mxGeometry>
        </mxCell>
        <mxCell id="WG-GIoE7qXhuWjVk6lCx-62" style="edgeStyle=orthogonalEdgeStyle;rounded=0;orthogonalLoop=1;jettySize=auto;html=1;fontSize=12;" parent="WIyWlLk6GJQsqaUBKTNV-1" source="WG-GIoE7qXhuWjVk6lCx-56" edge="1">
          <mxGeometry relative="1" as="geometry">
            <mxPoint x="920.0400000000001" y="443.5" as="targetPoint" />
            <Array as="points">
              <mxPoint x="1020.0400000000001" y="326.5" />
              <mxPoint x="1020.0400000000001" y="423.5" />
              <mxPoint x="920.0400000000001" y="423.5" />
            </Array>
          </mxGeometry>
        </mxCell>
        <mxCell id="WG-GIoE7qXhuWjVk6lCx-56" value="numb[j] &amp;gt; numb[j+1]" style="rhombus;whiteSpace=wrap;html=1;" parent="WIyWlLk6GJQsqaUBKTNV-1" vertex="1">
          <mxGeometry x="850.0400000000001" y="303.5" width="140" height="46" as="geometry" />
        </mxCell>
        <mxCell id="WG-GIoE7qXhuWjVk6lCx-61" value="" style="edgeStyle=orthogonalEdgeStyle;rounded=0;orthogonalLoop=1;jettySize=auto;html=1;fontSize=12;" parent="WIyWlLk6GJQsqaUBKTNV-1" source="WG-GIoE7qXhuWjVk6lCx-60" edge="1">
          <mxGeometry relative="1" as="geometry">
            <mxPoint x="920.0400000000001" y="443.5" as="targetPoint" />
          </mxGeometry>
        </mxCell>
        <mxCell id="WG-GIoE7qXhuWjVk6lCx-60" value="swap(numb[j+1], numb[j])" style="rounded=0;whiteSpace=wrap;html=1;fontSize=12;" parent="WIyWlLk6GJQsqaUBKTNV-1" vertex="1">
          <mxGeometry x="850.0400000000001" y="363.5" width="140" height="40" as="geometry" />
        </mxCell>
        <mxCell id="WG-GIoE7qXhuWjVk6lCx-64" value="нет" style="text;html=1;align=center;verticalAlign=middle;resizable=0;points=[];autosize=1;strokeColor=none;fillColor=none;fontSize=12;" parent="WIyWlLk6GJQsqaUBKTNV-1" vertex="1">
          <mxGeometry x="982.0400000000001" y="306.5" width="40" height="20" as="geometry" />
        </mxCell>
        <mxCell id="WG-GIoE7qXhuWjVk6lCx-65" value="нет" style="text;html=1;align=center;verticalAlign=middle;resizable=0;points=[];autosize=1;strokeColor=none;fillColor=none;fontSize=12;" parent="WIyWlLk6GJQsqaUBKTNV-1" vertex="1">
          <mxGeometry x="990.0400000000001" y="237.5" width="40" height="20" as="geometry" />
        </mxCell>
        <mxCell id="WG-GIoE7qXhuWjVk6lCx-66" value="нет" style="text;html=1;align=center;verticalAlign=middle;resizable=0;points=[];autosize=1;strokeColor=none;fillColor=none;fontSize=12;" parent="WIyWlLk6GJQsqaUBKTNV-1" vertex="1">
          <mxGeometry x="980.0400000000001" y="123.5" width="40" height="20" as="geometry" />
        </mxCell>
        <mxCell id="WG-GIoE7qXhuWjVk6lCx-67" value="да" style="text;html=1;align=center;verticalAlign=middle;resizable=0;points=[];autosize=1;strokeColor=none;fillColor=none;fontSize=12;" parent="WIyWlLk6GJQsqaUBKTNV-1" vertex="1">
          <mxGeometry x="875.0400000000001" y="343.5" width="40" height="20" as="geometry" />
        </mxCell>
        <mxCell id="WG-GIoE7qXhuWjVk6lCx-68" value="да" style="text;html=1;align=center;verticalAlign=middle;resizable=0;points=[];autosize=1;strokeColor=none;fillColor=none;fontSize=12;" parent="WIyWlLk6GJQsqaUBKTNV-1" vertex="1">
          <mxGeometry x="875.0400000000001" y="286.5" width="40" height="20" as="geometry" />
        </mxCell>
        <mxCell id="WG-GIoE7qXhuWjVk6lCx-69" value="да" style="text;html=1;align=center;verticalAlign=middle;resizable=0;points=[];autosize=1;strokeColor=none;fillColor=none;fontSize=12;" parent="WIyWlLk6GJQsqaUBKTNV-1" vertex="1">
          <mxGeometry x="890.0400000000001" y="163.5" width="40" height="20" as="geometry" />
        </mxCell>
        <mxCell id="WG-GIoE7qXhuWjVk6lCx-71" style="edgeStyle=orthogonalEdgeStyle;rounded=0;orthogonalLoop=1;jettySize=auto;html=1;fontSize=12;entryX=0.5;entryY=0;entryDx=0;entryDy=0;" parent="WIyWlLk6GJQsqaUBKTNV-1" target="WG-GIoE7qXhuWjVk6lCx-54" edge="1">
          <mxGeometry relative="1" as="geometry">
            <mxPoint x="820.0400000000001" y="310.5" as="targetPoint" />
            <mxPoint x="920.0400000000001" y="450.5" as="sourcePoint" />
            <Array as="points">
              <mxPoint x="920.0400000000001" y="470.5" />
              <mxPoint x="820.0400000000001" y="470.5" />
              <mxPoint x="820.0400000000001" y="223.5" />
              <mxPoint x="920.0400000000001" y="223.5" />
            </Array>
          </mxGeometry>
        </mxCell>
        <mxCell id="WG-GIoE7qXhuWjVk6lCx-70" value="++j" style="rounded=0;whiteSpace=wrap;html=1;fontSize=12;" parent="WIyWlLk6GJQsqaUBKTNV-1" vertex="1">
          <mxGeometry x="890.0400000000001" y="443.5" width="60" height="20" as="geometry" />
        </mxCell>
        <mxCell id="WG-GIoE7qXhuWjVk6lCx-73" value="++i" style="rounded=0;whiteSpace=wrap;html=1;fontSize=12;" parent="WIyWlLk6GJQsqaUBKTNV-1" vertex="1">
          <mxGeometry x="977.0400000000001" y="463.5" width="50" height="30" as="geometry" />
        </mxCell>
        <mxCell id="WG-GIoE7qXhuWjVk6lCx-77" value="sorting function &amp;gt;&amp;gt;" style="text;html=1;align=center;verticalAlign=middle;resizable=0;points=[];autosize=1;strokeColor=none;fillColor=none;fontSize=12;" parent="WIyWlLk6GJQsqaUBKTNV-1" vertex="1">
          <mxGeometry x="707" y="40" width="120" height="20" as="geometry" />
        </mxCell>
        <mxCell id="WG-GIoE7qXhuWjVk6lCx-78" value="&amp;lt;&amp;lt; main function&amp;nbsp;" style="text;html=1;align=center;verticalAlign=middle;resizable=0;points=[];autosize=1;strokeColor=none;fillColor=none;fontSize=12;" parent="WIyWlLk6GJQsqaUBKTNV-1" vertex="1">
          <mxGeometry x="410" y="23.5" width="120" height="20" as="geometry" />
        </mxCell>
        <mxCell id="zUhGvFNywTjKuXfnofkF-3" value="" style="edgeStyle=orthogonalEdgeStyle;rounded=0;orthogonalLoop=1;jettySize=auto;html=1;" parent="WIyWlLk6GJQsqaUBKTNV-1" source="zUhGvFNywTjKuXfnofkF-1" target="zUhGvFNywTjKuXfnofkF-2" edge="1">
          <mxGeometry relative="1" as="geometry" />
        </mxCell>
        <mxCell id="zUhGvFNywTjKuXfnofkF-1" value="file.open(&quot;f1.txt&quot;)" style="rounded=0;whiteSpace=wrap;html=1;" parent="WIyWlLk6GJQsqaUBKTNV-1" vertex="1">
          <mxGeometry x="100.00999999999999" y="222" width="140" height="30" as="geometry" />
        </mxCell>
        <mxCell id="zUhGvFNywTjKuXfnofkF-4" value="" style="edgeStyle=orthogonalEdgeStyle;rounded=0;orthogonalLoop=1;jettySize=auto;html=1;entryX=0.5;entryY=0;entryDx=0;entryDy=0;" parent="WIyWlLk6GJQsqaUBKTNV-1" source="zUhGvFNywTjKuXfnofkF-2" target="zUhGvFNywTjKuXfnofkF-6" edge="1">
          <mxGeometry relative="1" as="geometry" />
        </mxCell>
        <mxCell id="zUhGvFNywTjKuXfnofkF-2" value="file2.open(&quot;f2.txt&quot;)" style="rounded=0;whiteSpace=wrap;html=1;" parent="WIyWlLk6GJQsqaUBKTNV-1" vertex="1">
          <mxGeometry x="100" y="272" width="140" height="30" as="geometry" />
        </mxCell>
        <mxCell id="zUhGvFNywTjKuXfnofkF-6" value="file3.open(&quot;f3.txt&quot;)" style="rounded=0;whiteSpace=wrap;html=1;" parent="WIyWlLk6GJQsqaUBKTNV-1" vertex="1">
          <mxGeometry x="100.00999999999999" y="324" width="140" height="30" as="geometry" />
        </mxCell>
        <mxCell id="zUhGvFNywTjKuXfnofkF-10" value="" style="edgeStyle=orthogonalEdgeStyle;rounded=0;orthogonalLoop=1;jettySize=auto;html=1;" parent="WIyWlLk6GJQsqaUBKTNV-1" source="zUhGvFNywTjKuXfnofkF-7" target="zUhGvFNywTjKuXfnofkF-9" edge="1">
          <mxGeometry relative="1" as="geometry" />
        </mxCell>
        <mxCell id="zUhGvFNywTjKuXfnofkF-7" value="numb" style="shape=parallelogram;perimeter=parallelogramPerimeter;whiteSpace=wrap;html=1;fixedSize=1;" parent="WIyWlLk6GJQsqaUBKTNV-1" vertex="1">
          <mxGeometry x="307.5" y="123.5" width="65" height="20" as="geometry" />
        </mxCell>
        <mxCell id="zUhGvFNywTjKuXfnofkF-12" style="edgeStyle=orthogonalEdgeStyle;rounded=0;orthogonalLoop=1;jettySize=auto;html=1;" parent="WIyWlLk6GJQsqaUBKTNV-1" source="zUhGvFNywTjKuXfnofkF-9" target="zUhGvFNywTjKuXfnofkF-1" edge="1">
          <mxGeometry relative="1" as="geometry">
            <mxPoint x="240" y="203.5" as="targetPoint" />
            <Array as="points">
              <mxPoint x="160" y="183" />
            </Array>
          </mxGeometry>
        </mxCell>
        <mxCell id="zUhGvFNywTjKuXfnofkF-14" style="edgeStyle=orthogonalEdgeStyle;rounded=0;orthogonalLoop=1;jettySize=auto;html=1;" parent="WIyWlLk6GJQsqaUBKTNV-1" source="zUhGvFNywTjKuXfnofkF-9" edge="1">
          <mxGeometry relative="1" as="geometry">
            <mxPoint x="560" y="220" as="targetPoint" />
          </mxGeometry>
        </mxCell>
        <mxCell id="zUhGvFNywTjKuXfnofkF-9" value="" style="rhombus;whiteSpace=wrap;html=1;" parent="WIyWlLk6GJQsqaUBKTNV-1" vertex="1">
          <mxGeometry x="300" y="163.5" width="80" height="40" as="geometry" />
        </mxCell>
        <mxCell id="zUhGvFNywTjKuXfnofkF-13" value="1" style="text;html=1;align=center;verticalAlign=middle;resizable=0;points=[];autosize=1;strokeColor=none;fillColor=none;" parent="WIyWlLk6GJQsqaUBKTNV-1" vertex="1">
          <mxGeometry x="260" y="163.5" width="40" height="20" as="geometry" />
        </mxCell>
        <mxCell id="zUhGvFNywTjKuXfnofkF-15" value="2" style="text;html=1;align=center;verticalAlign=middle;resizable=0;points=[];autosize=1;strokeColor=none;fillColor=none;" parent="WIyWlLk6GJQsqaUBKTNV-1" vertex="1">
          <mxGeometry x="418.75" y="163.5" width="40" height="20" as="geometry" />
        </mxCell>
        <mxCell id="zUhGvFNywTjKuXfnofkF-28" value="" style="edgeStyle=orthogonalEdgeStyle;rounded=0;orthogonalLoop=1;jettySize=auto;html=1;fontSize=12;exitX=0.5;exitY=1;exitDx=0;exitDy=0;" parent="WIyWlLk6GJQsqaUBKTNV-1" source="zUhGvFNywTjKuXfnofkF-33" edge="1">
          <mxGeometry relative="1" as="geometry">
            <mxPoint x="559.99" y="485.5" as="sourcePoint" />
            <mxPoint x="559.99" y="505.5" as="targetPoint" />
          </mxGeometry>
        </mxCell>
        <mxCell id="zUhGvFNywTjKuXfnofkF-29" value="" style="edgeStyle=orthogonalEdgeStyle;rounded=0;orthogonalLoop=1;jettySize=auto;html=1;" parent="WIyWlLk6GJQsqaUBKTNV-1" target="zUhGvFNywTjKuXfnofkF-32" edge="1">
          <mxGeometry relative="1" as="geometry">
            <mxPoint x="559.99" y="386.5" as="sourcePoint" />
          </mxGeometry>
        </mxCell>
        <mxCell id="zUhGvFNywTjKuXfnofkF-31" value="" style="edgeStyle=orthogonalEdgeStyle;rounded=0;orthogonalLoop=1;jettySize=auto;html=1;entryX=0.5;entryY=0;entryDx=0;entryDy=0;" parent="WIyWlLk6GJQsqaUBKTNV-1" source="zUhGvFNywTjKuXfnofkF-32" target="zUhGvFNywTjKuXfnofkF-33" edge="1">
          <mxGeometry relative="1" as="geometry" />
        </mxCell>
        <mxCell id="zUhGvFNywTjKuXfnofkF-32" value="file2.open(&quot;f2.txt&quot;)" style="rounded=0;whiteSpace=wrap;html=1;" parent="WIyWlLk6GJQsqaUBKTNV-1" vertex="1">
          <mxGeometry x="489.99" y="406.5" width="140" height="30" as="geometry" />
        </mxCell>
        <mxCell id="zUhGvFNywTjKuXfnofkF-33" value="file3.open(&quot;f3.txt&quot;)" style="rounded=0;whiteSpace=wrap;html=1;" parent="WIyWlLk6GJQsqaUBKTNV-1" vertex="1">
          <mxGeometry x="490" y="458.5" width="140" height="30" as="geometry" />
        </mxCell>
        <mxCell id="zUhGvFNywTjKuXfnofkF-36" value="" style="edgeStyle=orthogonalEdgeStyle;rounded=0;orthogonalLoop=1;jettySize=auto;html=1;" parent="WIyWlLk6GJQsqaUBKTNV-1" source="zUhGvFNywTjKuXfnofkF-34" target="zUhGvFNywTjKuXfnofkF-35" edge="1">
          <mxGeometry relative="1" as="geometry" />
        </mxCell>
        <mxCell id="zUhGvFNywTjKuXfnofkF-34" value="file &amp;gt;&amp;gt; s" style="rounded=0;whiteSpace=wrap;html=1;" parent="WIyWlLk6GJQsqaUBKTNV-1" vertex="1">
          <mxGeometry x="125" y="382" width="90.01" height="28.5" as="geometry" />
        </mxCell>
        <mxCell id="zUhGvFNywTjKuXfnofkF-38" value="" style="edgeStyle=orthogonalEdgeStyle;rounded=0;orthogonalLoop=1;jettySize=auto;html=1;" parent="WIyWlLk6GJQsqaUBKTNV-1" source="zUhGvFNywTjKuXfnofkF-35" target="zUhGvFNywTjKuXfnofkF-37" edge="1">
          <mxGeometry relative="1" as="geometry" />
        </mxCell>
        <mxCell id="zUhGvFNywTjKuXfnofkF-47" style="edgeStyle=orthogonalEdgeStyle;rounded=0;orthogonalLoop=1;jettySize=auto;html=1;exitX=1;exitY=0.5;exitDx=0;exitDy=0;" parent="WIyWlLk6GJQsqaUBKTNV-1" source="zUhGvFNywTjKuXfnofkF-35" edge="1">
          <mxGeometry relative="1" as="geometry">
            <mxPoint x="180" y="680" as="targetPoint" />
            <Array as="points">
              <mxPoint x="320" y="460" />
              <mxPoint x="320" y="661" />
            </Array>
          </mxGeometry>
        </mxCell>
        <mxCell id="zUhGvFNywTjKuXfnofkF-35" value="!file.eof()" style="rhombus;whiteSpace=wrap;html=1;rounded=0;" parent="WIyWlLk6GJQsqaUBKTNV-1" vertex="1">
          <mxGeometry x="100" y="440" width="140" height="40" as="geometry" />
        </mxCell>
        <mxCell id="zUhGvFNywTjKuXfnofkF-39" style="edgeStyle=orthogonalEdgeStyle;rounded=0;orthogonalLoop=1;jettySize=auto;html=1;" parent="WIyWlLk6GJQsqaUBKTNV-1" source="zUhGvFNywTjKuXfnofkF-37" edge="1">
          <mxGeometry relative="1" as="geometry">
            <mxPoint x="100" y="560" as="targetPoint" />
          </mxGeometry>
        </mxCell>
        <mxCell id="zUhGvFNywTjKuXfnofkF-40" style="edgeStyle=orthogonalEdgeStyle;rounded=0;orthogonalLoop=1;jettySize=auto;html=1;" parent="WIyWlLk6GJQsqaUBKTNV-1" source="zUhGvFNywTjKuXfnofkF-37" edge="1">
          <mxGeometry relative="1" as="geometry">
            <mxPoint x="240" y="560" as="targetPoint" />
          </mxGeometry>
        </mxCell>
        <mxCell id="zUhGvFNywTjKuXfnofkF-37" value="s % 2 == 0" style="rhombus;whiteSpace=wrap;html=1;rounded=0;" parent="WIyWlLk6GJQsqaUBKTNV-1" vertex="1">
          <mxGeometry x="120" y="503.5" width="100" height="40" as="geometry" />
        </mxCell>
        <mxCell id="zUhGvFNywTjKuXfnofkF-43" style="edgeStyle=orthogonalEdgeStyle;rounded=0;orthogonalLoop=1;jettySize=auto;html=1;" parent="WIyWlLk6GJQsqaUBKTNV-1" source="zUhGvFNywTjKuXfnofkF-41" edge="1">
          <mxGeometry relative="1" as="geometry">
            <mxPoint x="180" y="620" as="targetPoint" />
            <Array as="points">
              <mxPoint x="105" y="600" />
              <mxPoint x="180" y="600" />
              <mxPoint x="180" y="620" />
            </Array>
          </mxGeometry>
        </mxCell>
        <mxCell id="zUhGvFNywTjKuXfnofkF-41" value="arr2.emplace_back(s)" style="rounded=0;whiteSpace=wrap;html=1;" parent="WIyWlLk6GJQsqaUBKTNV-1" vertex="1">
          <mxGeometry x="45" y="560" width="120" height="20" as="geometry" />
        </mxCell>
        <mxCell id="zUhGvFNywTjKuXfnofkF-44" style="edgeStyle=orthogonalEdgeStyle;rounded=0;orthogonalLoop=1;jettySize=auto;html=1;" parent="WIyWlLk6GJQsqaUBKTNV-1" source="zUhGvFNywTjKuXfnofkF-42" edge="1">
          <mxGeometry relative="1" as="geometry">
            <mxPoint x="180" y="620" as="targetPoint" />
            <Array as="points">
              <mxPoint x="240" y="600" />
              <mxPoint x="180" y="600" />
              <mxPoint x="180" y="620" />
            </Array>
          </mxGeometry>
        </mxCell>
        <mxCell id="zUhGvFNywTjKuXfnofkF-42" value="arr3.emplace_back(s)" style="rounded=0;whiteSpace=wrap;html=1;" parent="WIyWlLk6GJQsqaUBKTNV-1" vertex="1">
          <mxGeometry x="180.01" y="560" width="120" height="20" as="geometry" />
        </mxCell>
        <mxCell id="zUhGvFNywTjKuXfnofkF-46" style="edgeStyle=orthogonalEdgeStyle;rounded=0;orthogonalLoop=1;jettySize=auto;html=1;" parent="WIyWlLk6GJQsqaUBKTNV-1" source="zUhGvFNywTjKuXfnofkF-45" target="zUhGvFNywTjKuXfnofkF-35" edge="1">
          <mxGeometry relative="1" as="geometry">
            <Array as="points">
              <mxPoint x="40" y="630" />
              <mxPoint x="40" y="420" />
              <mxPoint x="170" y="420" />
            </Array>
          </mxGeometry>
        </mxCell>
        <mxCell id="zUhGvFNywTjKuXfnofkF-45" value="file &amp;gt;&amp;gt; s" style="rounded=0;whiteSpace=wrap;html=1;" parent="WIyWlLk6GJQsqaUBKTNV-1" vertex="1">
          <mxGeometry x="125.01" y="620" width="90.01" height="20" as="geometry" />
        </mxCell>
        <mxCell id="zUhGvFNywTjKuXfnofkF-50" value="" style="edgeStyle=orthogonalEdgeStyle;rounded=0;orthogonalLoop=1;jettySize=auto;html=1;" parent="WIyWlLk6GJQsqaUBKTNV-1" source="zUhGvFNywTjKuXfnofkF-48" target="zUhGvFNywTjKuXfnofkF-49" edge="1">
          <mxGeometry relative="1" as="geometry" />
        </mxCell>
        <mxCell id="zUhGvFNywTjKuXfnofkF-48" value="fsort(arr2)" style="rounded=0;whiteSpace=wrap;html=1;" parent="WIyWlLk6GJQsqaUBKTNV-1" vertex="1">
          <mxGeometry x="127.49000000000001" y="680" width="85.01" height="20" as="geometry" />
        </mxCell>
        <mxCell id="zUhGvFNywTjKuXfnofkF-49" value="fsort(arr3)" style="rounded=0;whiteSpace=wrap;html=1;" parent="WIyWlLk6GJQsqaUBKTNV-1" vertex="1">
          <mxGeometry x="127.51" y="720" width="85.01" height="20" as="geometry" />
        </mxCell>
        <mxCell id="zUhGvFNywTjKuXfnofkF-53" value="" style="edgeStyle=orthogonalEdgeStyle;rounded=0;orthogonalLoop=1;jettySize=auto;html=1;" parent="WIyWlLk6GJQsqaUBKTNV-1" source="zUhGvFNywTjKuXfnofkF-51" target="zUhGvFNywTjKuXfnofkF-52" edge="1">
          <mxGeometry relative="1" as="geometry" />
        </mxCell>
        <mxCell id="zUhGvFNywTjKuXfnofkF-51" value="&quot;enter file name&quot;" style="shape=document;whiteSpace=wrap;html=1;boundedLbl=1;" parent="WIyWlLk6GJQsqaUBKTNV-1" vertex="1">
          <mxGeometry x="520" y="222" width="80.01" height="39.5" as="geometry" />
        </mxCell>
        <mxCell id="zUhGvFNywTjKuXfnofkF-56" value="" style="edgeStyle=orthogonalEdgeStyle;rounded=0;orthogonalLoop=1;jettySize=auto;html=1;" parent="WIyWlLk6GJQsqaUBKTNV-1" source="zUhGvFNywTjKuXfnofkF-52" target="zUhGvFNywTjKuXfnofkF-54" edge="1">
          <mxGeometry relative="1" as="geometry" />
        </mxCell>
        <mxCell id="zUhGvFNywTjKuXfnofkF-52" value="name" style="shape=parallelogram;perimeter=parallelogramPerimeter;whiteSpace=wrap;html=1;fixedSize=1;" parent="WIyWlLk6GJQsqaUBKTNV-1" vertex="1">
          <mxGeometry x="510" y="278.5" width="100.01" height="28" as="geometry" />
        </mxCell>
        <mxCell id="zUhGvFNywTjKuXfnofkF-54" value="&lt;div&gt;ost(name + &quot;.txt&quot;)&lt;/div&gt;&lt;div&gt;&lt;span&gt;file.open(name + &quot;.txt&quot;)&lt;/span&gt;&lt;/div&gt;" style="rounded=0;whiteSpace=wrap;html=1;" parent="WIyWlLk6GJQsqaUBKTNV-1" vertex="1">
          <mxGeometry x="490" y="326.5" width="140" height="60" as="geometry" />
        </mxCell>
        <mxCell id="zUhGvFNywTjKuXfnofkF-60" value="" style="edgeStyle=orthogonalEdgeStyle;rounded=0;orthogonalLoop=1;jettySize=auto;html=1;exitX=0.5;exitY=0.849;exitDx=0;exitDy=0;exitPerimeter=0;" parent="WIyWlLk6GJQsqaUBKTNV-1" source="zUhGvFNywTjKuXfnofkF-57" target="zUhGvFNywTjKuXfnofkF-58" edge="1">
          <mxGeometry relative="1" as="geometry">
            <mxPoint x="560" y="580" as="sourcePoint" />
          </mxGeometry>
        </mxCell>
        <mxCell id="zUhGvFNywTjKuXfnofkF-57" value="&quot;Enter the set of numbers to be entered&quot;" style="shape=document;whiteSpace=wrap;html=1;boundedLbl=1;" parent="WIyWlLk6GJQsqaUBKTNV-1" vertex="1">
          <mxGeometry x="500" y="504.5" width="120" height="80" as="geometry" />
        </mxCell>
        <mxCell id="zUhGvFNywTjKuXfnofkF-67" value="" style="edgeStyle=orthogonalEdgeStyle;rounded=0;orthogonalLoop=1;jettySize=auto;html=1;" parent="WIyWlLk6GJQsqaUBKTNV-1" source="zUhGvFNywTjKuXfnofkF-58" target="zUhGvFNywTjKuXfnofkF-66" edge="1">
          <mxGeometry relative="1" as="geometry" />
        </mxCell>
        <mxCell id="zUhGvFNywTjKuXfnofkF-58" value="size" style="shape=parallelogram;perimeter=parallelogramPerimeter;whiteSpace=wrap;html=1;fixedSize=1;" parent="WIyWlLk6GJQsqaUBKTNV-1" vertex="1">
          <mxGeometry x="520" y="600" width="80" height="20" as="geometry" />
        </mxCell>
        <mxCell id="zUhGvFNywTjKuXfnofkF-64" value="" style="endArrow=classic;html=1;rounded=0;entryX=0.5;entryY=0;entryDx=0;entryDy=0;" parent="WIyWlLk6GJQsqaUBKTNV-1" target="zUhGvFNywTjKuXfnofkF-34" edge="1">
          <mxGeometry width="50" height="50" relative="1" as="geometry">
            <mxPoint x="280" y="360" as="sourcePoint" />
            <mxPoint x="290" y="340" as="targetPoint" />
            <Array as="points">
              <mxPoint x="170" y="360" />
            </Array>
          </mxGeometry>
        </mxCell>
        <mxCell id="zUhGvFNywTjKuXfnofkF-65" value="1" style="ellipse;whiteSpace=wrap;html=1;aspect=fixed;" parent="WIyWlLk6GJQsqaUBKTNV-1" vertex="1">
          <mxGeometry x="280.01" y="350" width="20" height="20" as="geometry" />
        </mxCell>
        <mxCell id="zUhGvFNywTjKuXfnofkF-69" value="" style="edgeStyle=orthogonalEdgeStyle;rounded=0;orthogonalLoop=1;jettySize=auto;html=1;" parent="WIyWlLk6GJQsqaUBKTNV-1" source="zUhGvFNywTjKuXfnofkF-66" target="zUhGvFNywTjKuXfnofkF-68" edge="1">
          <mxGeometry relative="1" as="geometry" />
        </mxCell>
        <mxCell id="zUhGvFNywTjKuXfnofkF-66" value="i = 0" style="whiteSpace=wrap;html=1;" parent="WIyWlLk6GJQsqaUBKTNV-1" vertex="1">
          <mxGeometry x="529.99" y="640" width="60" height="20" as="geometry" />
        </mxCell>
        <mxCell id="zUhGvFNywTjKuXfnofkF-71" value="" style="edgeStyle=orthogonalEdgeStyle;rounded=0;orthogonalLoop=1;jettySize=auto;html=1;" parent="WIyWlLk6GJQsqaUBKTNV-1" source="zUhGvFNywTjKuXfnofkF-68" target="zUhGvFNywTjKuXfnofkF-70" edge="1">
          <mxGeometry relative="1" as="geometry" />
        </mxCell>
        <mxCell id="zUhGvFNywTjKuXfnofkF-77" style="edgeStyle=orthogonalEdgeStyle;rounded=0;orthogonalLoop=1;jettySize=auto;html=1;" parent="WIyWlLk6GJQsqaUBKTNV-1" source="zUhGvFNywTjKuXfnofkF-68" edge="1">
          <mxGeometry relative="1" as="geometry">
            <mxPoint x="440" y="860" as="targetPoint" />
            <Array as="points">
              <mxPoint x="640" y="695" />
              <mxPoint x="640" y="860" />
              <mxPoint x="560" y="860" />
            </Array>
          </mxGeometry>
        </mxCell>
        <mxCell id="zUhGvFNywTjKuXfnofkF-68" value="i &amp;lt; size" style="rhombus;whiteSpace=wrap;html=1;" parent="WIyWlLk6GJQsqaUBKTNV-1" vertex="1">
          <mxGeometry x="519.99" y="680" width="80" height="30" as="geometry" />
        </mxCell>
        <mxCell id="zUhGvFNywTjKuXfnofkF-73" value="" style="edgeStyle=orthogonalEdgeStyle;rounded=0;orthogonalLoop=1;jettySize=auto;html=1;" parent="WIyWlLk6GJQsqaUBKTNV-1" source="zUhGvFNywTjKuXfnofkF-70" target="zUhGvFNywTjKuXfnofkF-72" edge="1">
          <mxGeometry relative="1" as="geometry" />
        </mxCell>
        <mxCell id="zUhGvFNywTjKuXfnofkF-70" value="num" style="shape=parallelogram;perimeter=parallelogramPerimeter;whiteSpace=wrap;html=1;fixedSize=1;" parent="WIyWlLk6GJQsqaUBKTNV-1" vertex="1">
          <mxGeometry x="529.99" y="730" width="59.99" height="20" as="geometry" />
        </mxCell>
        <mxCell id="zUhGvFNywTjKuXfnofkF-75" value="" style="edgeStyle=orthogonalEdgeStyle;rounded=0;orthogonalLoop=1;jettySize=auto;html=1;" parent="WIyWlLk6GJQsqaUBKTNV-1" source="zUhGvFNywTjKuXfnofkF-72" target="zUhGvFNywTjKuXfnofkF-74" edge="1">
          <mxGeometry relative="1" as="geometry" />
        </mxCell>
        <mxCell id="zUhGvFNywTjKuXfnofkF-72" value="arr.emplace_back(num)" style="whiteSpace=wrap;html=1;" parent="WIyWlLk6GJQsqaUBKTNV-1" vertex="1">
          <mxGeometry x="489.98" y="770" width="140.01" height="30" as="geometry" />
        </mxCell>
        <mxCell id="zUhGvFNywTjKuXfnofkF-76" style="edgeStyle=orthogonalEdgeStyle;rounded=0;orthogonalLoop=1;jettySize=auto;html=1;entryX=0;entryY=0.5;entryDx=0;entryDy=0;" parent="WIyWlLk6GJQsqaUBKTNV-1" source="zUhGvFNywTjKuXfnofkF-74" target="zUhGvFNywTjKuXfnofkF-68" edge="1">
          <mxGeometry relative="1" as="geometry">
            <mxPoint x="460" y="700" as="targetPoint" />
            <Array as="points">
              <mxPoint x="480" y="830" />
              <mxPoint x="480" y="695" />
            </Array>
          </mxGeometry>
        </mxCell>
        <mxCell id="zUhGvFNywTjKuXfnofkF-74" value="i++" style="whiteSpace=wrap;html=1;" parent="WIyWlLk6GJQsqaUBKTNV-1" vertex="1">
          <mxGeometry x="530" y="820" width="60.01" height="20" as="geometry" />
        </mxCell>
        <mxCell id="AZDiQZOVhgo6CnWe1Yxe-0" value="&lt;span&gt;fsort(arr2)&lt;/span&gt;" style="shape=process;whiteSpace=wrap;html=1;backgroundOutline=1;" vertex="1" parent="WIyWlLk6GJQsqaUBKTNV-1">
          <mxGeometry x="122.49" y="680" width="95" height="20" as="geometry" />
        </mxCell>
        <mxCell id="AZDiQZOVhgo6CnWe1Yxe-66" style="edgeStyle=orthogonalEdgeStyle;rounded=0;orthogonalLoop=1;jettySize=auto;html=1;" edge="1" parent="WIyWlLk6GJQsqaUBKTNV-1" source="AZDiQZOVhgo6CnWe1Yxe-1" target="AZDiQZOVhgo6CnWe1Yxe-57">
          <mxGeometry relative="1" as="geometry" />
        </mxCell>
        <mxCell id="AZDiQZOVhgo6CnWe1Yxe-1" value="&lt;span&gt;fsort(arr3)&lt;/span&gt;" style="shape=process;whiteSpace=wrap;html=1;backgroundOutline=1;" vertex="1" parent="WIyWlLk6GJQsqaUBKTNV-1">
          <mxGeometry x="122.49000000000001" y="720" width="95" height="20" as="geometry" />
        </mxCell>
        <mxCell id="AZDiQZOVhgo6CnWe1Yxe-5" value="" style="edgeStyle=orthogonalEdgeStyle;rounded=0;orthogonalLoop=1;jettySize=auto;html=1;" edge="1" parent="WIyWlLk6GJQsqaUBKTNV-1" source="AZDiQZOVhgo6CnWe1Yxe-3" target="AZDiQZOVhgo6CnWe1Yxe-4">
          <mxGeometry relative="1" as="geometry" />
        </mxCell>
        <mxCell id="AZDiQZOVhgo6CnWe1Yxe-21" style="edgeStyle=orthogonalEdgeStyle;rounded=0;orthogonalLoop=1;jettySize=auto;html=1;entryX=0.5;entryY=0;entryDx=0;entryDy=0;exitX=1;exitY=0.5;exitDx=0;exitDy=0;" edge="1" parent="WIyWlLk6GJQsqaUBKTNV-1" source="AZDiQZOVhgo6CnWe1Yxe-4">
          <mxGeometry relative="1" as="geometry">
            <mxPoint x="1209.97" y="295" as="targetPoint" />
            <Array as="points">
              <mxPoint x="1299.96" y="125" />
              <mxPoint x="1299.96" y="275" />
              <mxPoint x="1209.96" y="275" />
            </Array>
          </mxGeometry>
        </mxCell>
        <mxCell id="AZDiQZOVhgo6CnWe1Yxe-3" value="i = 0" style="whiteSpace=wrap;html=1;" vertex="1" parent="WIyWlLk6GJQsqaUBKTNV-1">
          <mxGeometry x="1179.96" y="50" width="60" height="20" as="geometry" />
        </mxCell>
        <mxCell id="AZDiQZOVhgo6CnWe1Yxe-7" value="" style="edgeStyle=orthogonalEdgeStyle;rounded=0;orthogonalLoop=1;jettySize=auto;html=1;" edge="1" parent="WIyWlLk6GJQsqaUBKTNV-1" source="AZDiQZOVhgo6CnWe1Yxe-4" target="AZDiQZOVhgo6CnWe1Yxe-6">
          <mxGeometry relative="1" as="geometry" />
        </mxCell>
        <mxCell id="AZDiQZOVhgo6CnWe1Yxe-4" value="i &amp;lt; arr2.size()" style="rhombus;whiteSpace=wrap;html=1;" vertex="1" parent="WIyWlLk6GJQsqaUBKTNV-1">
          <mxGeometry x="1139.96" y="95" width="140" height="60" as="geometry" />
        </mxCell>
        <mxCell id="AZDiQZOVhgo6CnWe1Yxe-11" value="" style="edgeStyle=orthogonalEdgeStyle;rounded=0;orthogonalLoop=1;jettySize=auto;html=1;" edge="1" parent="WIyWlLk6GJQsqaUBKTNV-1" source="AZDiQZOVhgo6CnWe1Yxe-6" target="AZDiQZOVhgo6CnWe1Yxe-10">
          <mxGeometry relative="1" as="geometry" />
        </mxCell>
        <mxCell id="AZDiQZOVhgo6CnWe1Yxe-6" value="file2 &amp;lt;&amp;lt; arr2[i]" style="whiteSpace=wrap;html=1;" vertex="1" parent="WIyWlLk6GJQsqaUBKTNV-1">
          <mxGeometry x="1149.95" y="175" width="120" height="40" as="geometry" />
        </mxCell>
        <mxCell id="AZDiQZOVhgo6CnWe1Yxe-12" style="edgeStyle=orthogonalEdgeStyle;rounded=0;orthogonalLoop=1;jettySize=auto;html=1;entryX=0.5;entryY=0;entryDx=0;entryDy=0;" edge="1" parent="WIyWlLk6GJQsqaUBKTNV-1" source="AZDiQZOVhgo6CnWe1Yxe-10" target="AZDiQZOVhgo6CnWe1Yxe-4">
          <mxGeometry relative="1" as="geometry">
            <mxPoint x="1099.96" y="115" as="targetPoint" />
            <Array as="points">
              <mxPoint x="1119.96" y="265" />
              <mxPoint x="1119.96" y="75" />
              <mxPoint x="1209.96" y="75" />
            </Array>
          </mxGeometry>
        </mxCell>
        <mxCell id="AZDiQZOVhgo6CnWe1Yxe-10" value="++i" style="whiteSpace=wrap;html=1;" vertex="1" parent="WIyWlLk6GJQsqaUBKTNV-1">
          <mxGeometry x="1174.96" y="235" width="69.99" height="20" as="geometry" />
        </mxCell>
        <mxCell id="AZDiQZOVhgo6CnWe1Yxe-22" value="нет" style="text;html=1;align=center;verticalAlign=middle;resizable=0;points=[];autosize=1;strokeColor=none;fillColor=none;" vertex="1" parent="WIyWlLk6GJQsqaUBKTNV-1">
          <mxGeometry x="1279.96" y="95" width="40" height="20" as="geometry" />
        </mxCell>
        <mxCell id="AZDiQZOVhgo6CnWe1Yxe-23" value="да" style="text;html=1;align=center;verticalAlign=middle;resizable=0;points=[];autosize=1;strokeColor=none;fillColor=none;" vertex="1" parent="WIyWlLk6GJQsqaUBKTNV-1">
          <mxGeometry x="1199.96" y="155" width="40" height="20" as="geometry" />
        </mxCell>
        <mxCell id="AZDiQZOVhgo6CnWe1Yxe-24" value="" style="edgeStyle=orthogonalEdgeStyle;rounded=0;orthogonalLoop=1;jettySize=auto;html=1;" edge="1" parent="WIyWlLk6GJQsqaUBKTNV-1" source="AZDiQZOVhgo6CnWe1Yxe-26" target="AZDiQZOVhgo6CnWe1Yxe-28">
          <mxGeometry relative="1" as="geometry" />
        </mxCell>
        <mxCell id="AZDiQZOVhgo6CnWe1Yxe-25" style="edgeStyle=orthogonalEdgeStyle;rounded=0;orthogonalLoop=1;jettySize=auto;html=1;entryX=0.5;entryY=0;entryDx=0;entryDy=0;exitX=1;exitY=0.5;exitDx=0;exitDy=0;" edge="1" parent="WIyWlLk6GJQsqaUBKTNV-1" source="AZDiQZOVhgo6CnWe1Yxe-28">
          <mxGeometry relative="1" as="geometry">
            <mxPoint x="1211.2200000000003" y="540" as="targetPoint" />
            <Array as="points">
              <mxPoint x="1301.21" y="370" />
              <mxPoint x="1301.21" y="520" />
              <mxPoint x="1211.21" y="520" />
            </Array>
          </mxGeometry>
        </mxCell>
        <mxCell id="AZDiQZOVhgo6CnWe1Yxe-26" value="i = 0" style="whiteSpace=wrap;html=1;" vertex="1" parent="WIyWlLk6GJQsqaUBKTNV-1">
          <mxGeometry x="1181.21" y="295" width="60" height="20" as="geometry" />
        </mxCell>
        <mxCell id="AZDiQZOVhgo6CnWe1Yxe-27" value="" style="edgeStyle=orthogonalEdgeStyle;rounded=0;orthogonalLoop=1;jettySize=auto;html=1;" edge="1" parent="WIyWlLk6GJQsqaUBKTNV-1" source="AZDiQZOVhgo6CnWe1Yxe-28" target="AZDiQZOVhgo6CnWe1Yxe-30">
          <mxGeometry relative="1" as="geometry" />
        </mxCell>
        <mxCell id="AZDiQZOVhgo6CnWe1Yxe-28" value="i &amp;lt; arr3.size()" style="rhombus;whiteSpace=wrap;html=1;" vertex="1" parent="WIyWlLk6GJQsqaUBKTNV-1">
          <mxGeometry x="1141.21" y="340" width="140" height="60" as="geometry" />
        </mxCell>
        <mxCell id="AZDiQZOVhgo6CnWe1Yxe-29" value="" style="edgeStyle=orthogonalEdgeStyle;rounded=0;orthogonalLoop=1;jettySize=auto;html=1;" edge="1" parent="WIyWlLk6GJQsqaUBKTNV-1" source="AZDiQZOVhgo6CnWe1Yxe-30" target="AZDiQZOVhgo6CnWe1Yxe-32">
          <mxGeometry relative="1" as="geometry" />
        </mxCell>
        <mxCell id="AZDiQZOVhgo6CnWe1Yxe-30" value="file3 &amp;lt;&amp;lt; arr3[i]" style="whiteSpace=wrap;html=1;" vertex="1" parent="WIyWlLk6GJQsqaUBKTNV-1">
          <mxGeometry x="1151.2" y="420" width="120" height="40" as="geometry" />
        </mxCell>
        <mxCell id="AZDiQZOVhgo6CnWe1Yxe-31" style="edgeStyle=orthogonalEdgeStyle;rounded=0;orthogonalLoop=1;jettySize=auto;html=1;entryX=0.5;entryY=0;entryDx=0;entryDy=0;" edge="1" parent="WIyWlLk6GJQsqaUBKTNV-1" source="AZDiQZOVhgo6CnWe1Yxe-32" target="AZDiQZOVhgo6CnWe1Yxe-28">
          <mxGeometry relative="1" as="geometry">
            <mxPoint x="1101.21" y="360" as="targetPoint" />
            <Array as="points">
              <mxPoint x="1121.21" y="510" />
              <mxPoint x="1121.21" y="320" />
              <mxPoint x="1211.21" y="320" />
            </Array>
          </mxGeometry>
        </mxCell>
        <mxCell id="AZDiQZOVhgo6CnWe1Yxe-32" value="++i" style="whiteSpace=wrap;html=1;" vertex="1" parent="WIyWlLk6GJQsqaUBKTNV-1">
          <mxGeometry x="1176.21" y="480" width="69.99" height="20" as="geometry" />
        </mxCell>
        <mxCell id="AZDiQZOVhgo6CnWe1Yxe-34" value="да" style="text;html=1;align=center;verticalAlign=middle;resizable=0;points=[];autosize=1;strokeColor=none;fillColor=none;" vertex="1" parent="WIyWlLk6GJQsqaUBKTNV-1">
          <mxGeometry x="1201.21" y="400" width="40" height="20" as="geometry" />
        </mxCell>
        <mxCell id="AZDiQZOVhgo6CnWe1Yxe-40" style="edgeStyle=orthogonalEdgeStyle;rounded=0;orthogonalLoop=1;jettySize=auto;html=1;entryX=0.5;entryY=0;entryDx=0;entryDy=0;" edge="1" parent="WIyWlLk6GJQsqaUBKTNV-1" source="AZDiQZOVhgo6CnWe1Yxe-39" target="AZDiQZOVhgo6CnWe1Yxe-3">
          <mxGeometry relative="1" as="geometry">
            <Array as="points">
              <mxPoint x="1209.92" y="50" />
              <mxPoint x="1209.92" y="50" />
            </Array>
          </mxGeometry>
        </mxCell>
        <mxCell id="AZDiQZOVhgo6CnWe1Yxe-39" value="2" style="ellipse;whiteSpace=wrap;html=1;aspect=fixed;" vertex="1" parent="WIyWlLk6GJQsqaUBKTNV-1">
          <mxGeometry x="1199.95" y="15" width="20" height="20" as="geometry" />
        </mxCell>
        <mxCell id="AZDiQZOVhgo6CnWe1Yxe-43" value="3" style="ellipse;whiteSpace=wrap;html=1;aspect=fixed;" vertex="1" parent="WIyWlLk6GJQsqaUBKTNV-1">
          <mxGeometry x="1201.21" y="540" width="20" height="20" as="geometry" />
        </mxCell>
        <mxCell id="AZDiQZOVhgo6CnWe1Yxe-62" style="edgeStyle=orthogonalEdgeStyle;rounded=0;orthogonalLoop=1;jettySize=auto;html=1;entryX=1;entryY=0.5;entryDx=0;entryDy=0;" edge="1" parent="WIyWlLk6GJQsqaUBKTNV-1" source="AZDiQZOVhgo6CnWe1Yxe-58" target="AZDiQZOVhgo6CnWe1Yxe-59">
          <mxGeometry relative="1" as="geometry" />
        </mxCell>
        <mxCell id="AZDiQZOVhgo6CnWe1Yxe-58" value="1" style="ellipse;whiteSpace=wrap;html=1;aspect=fixed;" vertex="1" parent="WIyWlLk6GJQsqaUBKTNV-1">
          <mxGeometry x="419.75" y="849" width="20" height="20" as="geometry" />
        </mxCell>
        <mxCell id="AZDiQZOVhgo6CnWe1Yxe-68" style="edgeStyle=orthogonalEdgeStyle;rounded=0;orthogonalLoop=1;jettySize=auto;html=1;" edge="1" parent="WIyWlLk6GJQsqaUBKTNV-1" source="AZDiQZOVhgo6CnWe1Yxe-59" target="AZDiQZOVhgo6CnWe1Yxe-63">
          <mxGeometry relative="1" as="geometry" />
        </mxCell>
        <mxCell id="AZDiQZOVhgo6CnWe1Yxe-59" value="3" style="ellipse;whiteSpace=wrap;html=1;aspect=fixed;" vertex="1" parent="WIyWlLk6GJQsqaUBKTNV-1">
          <mxGeometry x="360.01" y="784" width="20" height="20" as="geometry" />
        </mxCell>
        <mxCell id="AZDiQZOVhgo6CnWe1Yxe-64" style="edgeStyle=orthogonalEdgeStyle;rounded=0;orthogonalLoop=1;jettySize=auto;html=1;entryX=0.5;entryY=0;entryDx=0;entryDy=0;" edge="1" parent="WIyWlLk6GJQsqaUBKTNV-1" source="AZDiQZOVhgo6CnWe1Yxe-60" target="AZDiQZOVhgo6CnWe1Yxe-63">
          <mxGeometry relative="1" as="geometry" />
        </mxCell>
        <mxCell id="AZDiQZOVhgo6CnWe1Yxe-60" value="3" style="ellipse;whiteSpace=wrap;html=1;aspect=fixed;" vertex="1" parent="WIyWlLk6GJQsqaUBKTNV-1">
          <mxGeometry x="160.01" y="784" width="20" height="20" as="geometry" />
        </mxCell>
        <mxCell id="AZDiQZOVhgo6CnWe1Yxe-63" value="конец" style="rounded=1;whiteSpace=wrap;html=1;" vertex="1" parent="WIyWlLk6GJQsqaUBKTNV-1">
          <mxGeometry x="212.5" y="829" width="120" height="60" as="geometry" />
        </mxCell>
        <mxCell id="AZDiQZOVhgo6CnWe1Yxe-67" style="edgeStyle=orthogonalEdgeStyle;rounded=0;orthogonalLoop=1;jettySize=auto;html=1;exitX=0.5;exitY=1;exitDx=0;exitDy=0;entryX=0.5;entryY=0;entryDx=0;entryDy=0;" edge="1" parent="WIyWlLk6GJQsqaUBKTNV-1" source="AZDiQZOVhgo6CnWe1Yxe-57" target="AZDiQZOVhgo6CnWe1Yxe-60">
          <mxGeometry relative="1" as="geometry">
            <mxPoint x="170.08860759493666" y="780" as="targetPoint" />
          </mxGeometry>
        </mxCell>
        <mxCell id="AZDiQZOVhgo6CnWe1Yxe-57" value="2" style="ellipse;whiteSpace=wrap;html=1;aspect=fixed;" vertex="1" parent="WIyWlLk6GJQsqaUBKTNV-1">
          <mxGeometry x="159.99" y="750" width="20" height="20" as="geometry" />
        </mxCell>
        <mxCell id="AZDiQZOVhgo6CnWe1Yxe-70" value="&amp;lt;&amp;lt; too much text" style="text;html=1;align=center;verticalAlign=middle;resizable=0;points=[];autosize=1;strokeColor=none;fillColor=none;" vertex="1" parent="WIyWlLk6GJQsqaUBKTNV-1">
          <mxGeometry x="1260" y="40" width="120" height="20" as="geometry" />
        </mxCell>
      </root>
    </mxGraphModel>
  </diagram>
</mxfile>
